# xmcd
#
# Track frame offsets:
# 150
# 27246
# 48619
# 71779
# 89622
# 106716
# 124161
# 140638
# 165266
# 179567
#
# Disc length: 2624 seconds
#
# Revision: 1
# Processed by: cddbd v1.5.1PL0 Copyright (c) Steve Scherf et al.
# Submitted via: Axialis_AX_CDPlayer 2.6
#
DISCID=8c0a3e0a
DTITLE=Vanessa  Mae - Choreography
DYEAR=2004
DGENRE=
TTITLE0=sabre dance
TTITLE1=roxane's veil
TTITLE2=bolero for violin and orchestra
TTITLE3=tango de los exilados
TTITLE4=the havana slide
TTITLE5=emerald tiger
TTITLE6=tribal geathering
TTITLE7=raga's dance
TTITLE8=moroccan roll
TTITLE9=handel's minuet
EXTD=YEAR: 2004
EXTT0=
EXTT1=
EXTT2=
EXTT3=
EXTT4=
EXTT5=
EXTT6=
EXTT7=
EXTT8=
EXTT9=
PLAYORDER=
